<svg
 xmlns="http://www.w3.org/2000/svg"
 xmlns:xlink="http://www.w3.org/1999/xlink"
 width="57px" height="13px">
<path fill-rule="evenodd"  opacity="0.702" fill="rgb(0, 0, 0)"
 d="M50.517,12.992 C46.942,12.992 44.042,10.085 44.042,6.500 C44.042,2.914 46.942,0.007 50.517,0.007 C54.095,0.007 56.994,2.914 56.994,6.500 C56.994,10.085 54.095,12.992 50.517,12.992 ZM28.499,12.992 C24.923,12.992 22.023,10.085 22.023,6.500 C22.023,2.914 24.923,0.007 28.499,0.007 C32.076,0.007 34.975,2.914 34.975,6.500 C34.975,10.085 32.076,12.992 28.499,12.992 ZM6.480,12.992 C2.904,12.992 0.004,10.085 0.004,6.500 C0.004,2.914 2.904,0.007 6.480,0.007 C10.057,0.007 12.956,2.914 12.956,6.500 C12.956,10.085 10.057,12.992 6.480,12.992 Z"/>
</svg>
